<?xml version="1.0" encoding="UTF-8" standalone="no"?><!DOCTYPE svg PUBLIC "-//W3C//DTD SVG 1.1//EN" "http://www.w3.org/Graphics/SVG/1.1/DTD/svg11.dtd"><svg width="100%" height="100%" viewBox="0 0 4359 4175" version="1.1" xmlns="http://www.w3.org/2000/svg" xmlns:xlink="http://www.w3.org/1999/xlink" xml:space="preserve" xmlns:serif="http://www.serif.com/" style="fill-rule:evenodd;clip-rule:evenodd;stroke-linejoin:round;stroke-miterlimit:2;"><g><path d="M2632.292,3331.333c-7.542,2.792 -468.625,4.458 -542.708,2l-62.5,-2.083l-1.25,-10.792c-1.083,-9.375 1.167,-11.708 16.667,-17.375c9.833,-3.583 25.417,-7.75 34.583,-9.292c23.167,-3.917 40.917,-15.875 57.583,-38.792c18.708,-25.708 27.917,-44.208 34.542,-69.25c7.667,-29 9.125,-2231.167 1.5,-2262.833c-8.458,-35.208 -32.583,-80 -52.583,-97.583c-14.708,-12.958 -22.667,-16.625 -41.375,-18.958c-31.833,-3.958 -51.75,-12.792 -51.75,-22.958c0,-4.458 3.792,-10.167 8.417,-12.625c9.167,-4.917 569.167,-5.083 593.083,-0.208c10.208,2.083 13.083,4.833 13.083,12.458c0,10.708 -15.417,17.167 -54.833,23.083c-28.583,4.292 -56.042,19.625 -76.292,42.625c-20.667,23.458 -25.667,32.417 -37.292,66.958c-8.667,25.667 -8.667,27.042 -8.667,793.875c0,422.5 1.167,769.333 2.542,770.75c3.417,3.375 22.458,-9.208 22.458,-14.833c0,-5.542 26.583,-59.375 37.5,-75.917c4.542,-6.875 9.5,-15.292 11.042,-18.75c3.167,-7.125 26.042,-47.5 57.833,-102.083c12.042,-20.625 30.833,-54.375 41.792,-75c11,-20.625 24.708,-45 30.458,-54.167c5.75,-9.167 16.958,-28.833 24.875,-43.75c23.292,-43.792 27.417,-51.167 39.333,-69.708c6.25,-9.708 11.333,-19.083 11.333,-20.917c0,-1.792 4.667,-10.125 10.333,-18.458c5.667,-8.375 20.375,-34.583 32.667,-58.25c18.958,-36.542 33.875,-63.292 53.083,-95.167c2.083,-3.458 8.583,-15.625 14.5,-27.083c5.917,-11.458 14.333,-26.458 18.792,-33.333c4.417,-6.875 9.333,-15.292 10.917,-18.75c1.542,-3.458 7.583,-13.75 13.375,-22.917c5.792,-9.167 15.833,-27 22.25,-39.583c6.458,-12.583 18.417,-34.167 26.625,-47.917c14.792,-24.75 33.208,-57.75 56.958,-102.083c6.75,-12.583 14.875,-25.875 18.042,-29.5c3.208,-3.625 5.792,-8.625 5.792,-11.125c0,-3.833 28.708,-56.042 41.792,-76.042c2.25,-3.458 5.292,-9.042 6.75,-12.5c1.5,-3.458 11.792,-21.5 22.917,-40.167c11.125,-18.667 20.208,-35.083 20.208,-36.542c0,-1.458 4.375,-9.625 9.708,-18.167c9.292,-14.833 30.292,-52.333 51.875,-92.625c5.542,-10.333 11.542,-20.625 13.375,-22.917c1.833,-2.292 9.125,-14.958 16.25,-28.125c24.917,-46.083 37.125,-67.917 51.875,-92.708c32.208,-54.042 73.583,-142.417 73.583,-157.083c0,-17.25 -14.667,-39.167 -45.625,-68.125c-32.708,-30.625 -66.958,-45.625 -114.292,-50.125c-37.625,-3.583 -45.125,-7.375 -43.458,-21.833l1.292,-11.167l68.75,-2.542c89.542,-3.333 331.542,-3.333 447.917,-0.042c90.875,2.542 91.667,2.667 93,11.917c1.708,12.125 -7.542,15.75 -55.5,21.708c-20.625,2.583 -44.083,6.417 -52.083,8.542c-63.5,16.75 -86.75,24.708 -125,42.708c-46.333,21.792 -95,55.458 -119.667,82.75c-15.708,17.375 -45,60.25 -53.833,78.708c-1.625,3.417 -7.042,12.792 -12,20.833c-4.958,8.042 -18.917,33.333 -31.042,56.25c-12.125,22.917 -28.333,52.208 -36.083,65.125c-7.708,12.917 -14.042,24.667 -14.042,26.167c0,1.5 -10.542,20 -23.417,41.125c-12.875,21.125 -25.083,42.167 -27.167,46.75c-2.042,4.583 -8,15.833 -13.25,25c-5.25,9.167 -15.75,27.667 -23.292,41.125c-7.542,13.458 -19.292,33.958 -26.083,45.5c-6.833,11.583 -19.792,35.25 -28.792,52.625c-9,17.375 -18.708,35.25 -21.583,39.75c-14.25,22.542 -26,43.458 -39.5,70.458c-8.208,16.333 -19.625,37.208 -25.458,46.375c-11.542,18.25 -25.167,42.792 -41.583,75c-5.833,11.458 -12.917,23.625 -15.75,27.083c-2.833,3.458 -17.708,30.583 -33.125,60.375c-15.375,29.75 -32.417,61.125 -37.833,69.708c-5.417,8.583 -9.833,18.125 -9.833,21.167c0,3.083 13.417,27.958 29.792,55.292c16.417,27.333 35.208,60.042 41.792,72.625c6.583,12.583 17.417,32.292 24.125,43.75c6.667,11.458 18.875,33.5 27.083,49c8.25,15.5 20.208,37.083 26.542,47.917c6.375,10.875 12.917,22.542 14.5,26c1.625,3.458 6.583,11.875 11.083,18.75c4.5,6.875 10.958,18.125 14.375,25c10.917,21.833 33.75,62.292 55.917,98.958c11.792,19.542 21.458,36.625 21.458,37.958c0,1.333 8.458,16.708 18.75,34.125c10.292,17.458 18.75,32.542 18.75,33.542c0,1 5.083,9.75 11.333,19.458c6.25,9.708 15.708,26.083 21.042,36.375c5.333,10.292 15.708,29.417 23.042,42.458c29,51.583 50.25,89.583 58.917,105.458c16,29.292 48.708,86.458 69.375,121.292c11.042,18.583 29.875,52.333 41.875,75c11.958,22.667 23.292,41.833 25.167,42.583c1.875,0.792 3.417,3.333 3.417,5.708c0,2.375 6.333,14.875 14.125,27.792c7.75,12.917 21,36.583 29.5,52.625c8.458,16.042 17.083,31.958 19.167,35.417c25.25,41.5 53.875,93.542 53.875,98c0,3.125 1.625,6.667 3.583,7.875c1.958,1.25 14.5,20.583 27.833,42.958c46.042,77.458 78.833,117.75 123.542,151.75c40.292,30.667 61.458,40.375 95.708,43.75c14.542,1.417 29.708,5.458 33.708,8.958c8.5,7.417 9.5,19.125 2.083,24.333c-2.917,2.042 -137.292,2.708 -305.208,1.542l-300,-2.083l0,-10.375c0,-7.708 3.708,-12.208 14.583,-17.5c8,-3.917 18.208,-7.25 22.667,-7.333c14.708,-0.375 35.25,-18.375 43.917,-38.5c10.208,-23.667 11.292,-66.5 2.125,-84.042c-3.417,-6.583 -6.208,-14.417 -6.208,-17.375c0,-4.583 -19.542,-47.333 -33.833,-74.083l-18.958,-35.417c-8.208,-15.333 -16.333,-29.75 -18.083,-32.042c-1.75,-2.292 -12.5,-22 -23.958,-43.75c-11.458,-21.75 -26.292,-48.958 -33.042,-60.417c-6.708,-11.458 -13.542,-23.625 -15.125,-27.083c-1.583,-3.458 -6.333,-11.875 -10.5,-18.75c-4.167,-6.875 -15.708,-27.5 -25.625,-45.833c-9.958,-18.333 -22.167,-40.833 -27.208,-50c-5.042,-9.167 -15.25,-27.917 -22.708,-41.667c-7.458,-13.75 -21.208,-38.125 -30.583,-54.167c-9.333,-16.042 -24.958,-44.792 -34.708,-63.875c-9.75,-19.125 -19.5,-36.917 -21.667,-39.583c-2.167,-2.708 -13.292,-22.75 -24.708,-44.625c-11.458,-21.833 -28.542,-52.333 -37.958,-67.792c-9.458,-15.417 -17.167,-28.917 -17.167,-30.042c0,-1.083 -9.625,-19.333 -21.333,-40.542c-11.75,-21.208 -26.75,-48.375 -33.333,-60.417l-24,-43.75c-20.417,-37.292 -53.042,-95.375 -72.958,-129.958c-10.458,-18.208 -19.625,-34.875 -20.333,-37c-3,-8.917 -18.417,2.625 -30.125,22.458c-6.875,11.667 -18.542,30.917 -25.917,42.75c-7.375,11.833 -14.75,24.333 -16.375,27.792c-1.583,3.458 -7.625,13.75 -13.375,22.917c-5.75,9.167 -17.417,30.125 -25.875,46.542c-8.5,16.417 -20.208,36.125 -26.042,43.75c-5.833,7.667 -12.625,18.583 -15.083,24.292c-5.083,11.667 -21.083,39.417 -37.292,64.583c-10.333,16.083 -27.875,47.167 -38.75,68.75c-2.875,5.75 -11.917,21.667 -20.125,35.417c-6.417,10.75 -11.417,18.375 -15.292,26.5c-13.875,28.958 -13.875,64.583 -13.792,270.625l0,47.292c0,298.875 0.875,314.042 20.667,358.292c7.792,17.417 29.708,42.875 50.75,58.917c15.458,11.792 61.042,27.833 79.333,27.917c17.958,0.083 33.292,22 19.042,27.208Zm-953.125,1.958c-69.875,0 -246.167,0.708 -391.667,1.458c-145.5,0.792 -374.25,0.333 -508.333,-1.042l-243.75,-2.458l1.125,-12.5c1.292,-13.917 7.958,-32.208 31.625,-86.583c3.75,-8.708 6.917,-18.083 6.958,-20.833c0.083,-2.792 3.792,-12.583 8.208,-21.75c4.417,-9.167 8.125,-19.583 8.208,-23.125c0.042,-3.542 1.625,-8.25 3.458,-10.417c1.833,-2.167 7.583,-15.208 12.792,-28.958c5.208,-13.75 12.125,-31.167 15.417,-38.667c3.292,-7.542 5.958,-17.292 5.958,-21.625c0,-4.375 1.667,-9 3.708,-10.25c2.042,-1.25 4.917,-7.167 6.417,-13.125c1.5,-5.958 7.375,-20.458 13,-32.167c5.667,-11.75 12,-27.042 14.083,-34c2.083,-6.958 7.833,-22.958 12.792,-35.583c4.917,-12.625 10.458,-27.667 12.25,-33.458c1.833,-5.833 8.375,-21.75 14.542,-35.417c20.25,-44.833 23.208,-52.167 23.208,-57.458c0,-2.875 6.792,-21.083 15.083,-40.5c8.292,-19.375 20.708,-50.25 27.625,-68.583c27.333,-72.667 34.542,-91.125 42.375,-108.333c14,-30.833 19.083,-44.542 19.083,-51.417c0,-4.083 2.75,-11.042 6.125,-15.5c3.375,-4.458 6.167,-11.208 6.25,-15.042c0.083,-3.833 4.667,-16 10.25,-27.125c5.583,-11.083 14.792,-34.208 20.458,-51.375c12.917,-38.958 26.792,-73.583 38.792,-96.625c3.208,-6.167 9.542,-23.042 14.083,-37.5c4.542,-14.417 10.042,-30 12.292,-34.583c2.208,-4.583 6.708,-15.833 9.958,-25c3.292,-9.167 11.917,-30.75 19.167,-47.917c7.292,-17.167 17.042,-42.5 21.708,-56.25c4.625,-13.75 13.667,-37.167 20.083,-52.083c6.417,-14.917 17.625,-43.042 24.917,-62.5c11.083,-29.708 30.75,-78.958 45.708,-114.583c1.917,-4.583 9.542,-25.208 16.917,-45.833c7.375,-20.625 15.833,-41.375 18.792,-46.125c2.958,-4.708 7.25,-15.042 9.583,-22.917c2.333,-7.833 8.292,-24.625 13.25,-37.208c4.917,-12.583 10.458,-27.667 12.25,-33.458c1.833,-5.833 8.375,-21.75 14.542,-35.417c20.875,-46.25 23.208,-52.208 23.208,-59.625c0,-4.083 2.75,-11.042 6.125,-15.5c3.375,-4.458 6.167,-10.417 6.25,-13.292c0.083,-2.833 5.417,-16.917 11.875,-31.25c6.458,-14.333 16.292,-39.792 21.875,-56.625c5.542,-16.833 11.5,-31.5 13.25,-32.542c1.708,-1.083 3.125,-4.75 3.125,-8.167c0,-6.125 12.708,-37.75 21.292,-53.125c2.417,-4.292 8.833,-21.167 14.333,-37.5c14,-41.792 22.125,-64.083 26.375,-72.5c2.042,-4 5.667,-11.917 8.083,-17.667c2.417,-5.75 8.042,-19.125 12.542,-29.792c4.5,-10.625 9.458,-25.125 11,-32.208c1.583,-7.125 4.583,-13.958 6.708,-15.292c2.083,-1.292 3.833,-5.5 3.833,-9.333c0,-3.833 5.458,-18.25 12.125,-32.042c6.667,-13.792 15.875,-36.333 20.5,-50.083c4.583,-13.75 18.042,-48.417 29.917,-77.083c11.833,-28.667 24.042,-59.583 27.125,-68.75c3.083,-9.167 9.667,-27 14.625,-39.583c4.958,-12.583 13.208,-34.167 18.375,-47.917c10.792,-28.792 17.375,-44.458 26.792,-63.583c5.042,-10.333 5.542,-15.375 2.083,-20.833c-4.25,-6.75 -19.792,-7.167 -229.083,-6.042c-222.125,1.167 -283.083,4.375 -305.25,15.917c-6.042,3.167 -14.333,5.75 -18.5,5.75c-4.125,0.042 -18.667,5.583 -32.333,12.375c-81.083,40.208 -153.75,113.125 -193.25,193.917c-24.667,50.5 -25.458,52.333 -33,79.167c-3.917,13.75 -9.625,33.417 -12.708,43.75c-17.333,57.708 -31.583,123.792 -31.583,146.542c0,27.458 -13.25,42.792 -28.583,33.083c-4.667,-2.958 -4.833,-12.708 -0.833,-57.208c2.625,-29.542 7.5,-70.542 10.792,-91.167c3.333,-20.625 8,-63.75 10.417,-95.833c2.375,-32.083 6.042,-73.333 8.083,-91.667c2.083,-18.333 5.917,-56.75 8.542,-85.417c2.625,-28.667 7.875,-71.708 11.708,-95.667l6.958,-43.625l558.333,-0.542c307.083,-0.292 560.667,0.292 563.542,1.333c8.125,2.958 6.25,14.583 -7.292,44.75c-6.875,15.333 -12.5,29.75 -12.5,32.042c0,2.333 -2.542,10.125 -5.583,17.333c-3.083,7.208 -11.792,29.042 -19.292,48.542c-7.542,19.5 -20.167,51.333 -28.125,70.833c-7.958,19.5 -17.083,42.458 -20.292,51.042c-30.167,80.375 -31.583,84.042 -35.375,91.458c-6.25,12.125 -33,81.125 -33,85.042c0,2.042 -5.583,16.833 -12.375,32.875c-6.833,16.042 -21.833,53.542 -33.375,83.333c-11.542,29.792 -22.833,57.417 -25.083,61.417c-4.417,7.667 -9.667,21.667 -24.708,65.667c-5.125,14.917 -11.792,32.708 -14.833,39.583c-3.083,6.875 -11.542,27.5 -18.792,45.833c-7.25,18.333 -15.583,38.958 -18.542,45.833c-11.333,26.417 -44.042,112.667 -44,116.042c0,1.958 -2.583,9.458 -5.833,16.667c-13.333,29.75 -60.792,151.333 -60.792,155.667c0,2.583 -2.667,10 -5.875,16.5c-7.917,15.792 -16.875,36.958 -25.333,59.708c-3.833,10.333 -9.625,24.042 -12.875,30.542c-3.25,6.5 -5.917,14.292 -5.917,17.375c0,3.083 -2.75,10.875 -6.125,17.375c-3.375,6.5 -11.958,27.75 -19.083,47.208c-7.083,19.458 -15.458,41.042 -18.583,47.917c-3.083,6.875 -6.917,17.167 -8.5,22.917c-1.625,5.75 -8.125,21.667 -14.458,35.417c-6.375,13.75 -14.875,35.292 -18.875,47.917c-4.042,12.625 -8.583,24.792 -10.167,27.083c-1.583,2.292 -7.083,16.333 -12.292,31.25c-5.208,14.917 -11.875,32.708 -14.875,39.583c-3,6.875 -8.417,20.458 -12.083,30.208c-16.625,44.375 -20.583,54.25 -28.458,71.333c-9.875,21.375 -23,55.458 -28.625,74.292c-2.208,7.333 -6.708,18.583 -10.083,25c-3.333,6.417 -6.083,14.125 -6.083,17.125c-0.042,3 -4.542,15.208 -10.083,27.083c-12.417,26.75 -23.375,54 -38.042,94.542c-6.25,17.167 -13.792,36.875 -16.792,43.75c-3.042,6.875 -12.292,30.333 -20.583,52.083c-8.292,21.75 -20.792,53.667 -27.75,70.833c-6.958,17.167 -15.292,38.292 -18.458,46.875c-14,37.583 -19.542,51.875 -25,64.708c-3.208,7.542 -5.833,15.5 -5.833,17.708c0,2.208 -5.375,15.75 -12,30.083c-6.583,14.333 -16.208,37.292 -21.375,51.042c-5.167,13.75 -14.583,38.125 -20.917,54.167c-6.333,16.042 -13.917,35.75 -16.792,43.75c-2.875,8 -8.375,22.083 -12.167,31.25c-9.917,23.833 -20.875,51.542 -28,70.833c-3.417,9.167 -8.958,22.458 -12.375,29.583c-3.375,7.083 -5.542,19.25 -4.792,27.083l1.333,14.167l309.708,1.083l309.667,1.042l40.333,-10.917c22.167,-6 44.042,-11.917 48.625,-13.125c4.583,-1.208 10.208,-3.542 12.5,-5.167c2.292,-1.625 17.292,-10.083 33.333,-18.75c74.917,-40.583 133.25,-104.458 174.375,-190.958c24.75,-52.125 27.333,-58.417 35.958,-88.208c4.667,-16.042 10.333,-34.875 12.583,-41.875c5.958,-18.458 12.375,-48.75 19.333,-91.458c10.333,-63.458 14.542,-74.792 28.375,-76.375l11.958,-1.375l-2.667,51.375c-1.458,28.25 -4.375,61.667 -6.542,74.292c-4.083,24.208 -12.542,100.042 -23.458,210.417c-3.625,36.667 -8.5,80.75 -10.833,97.917c-2.333,17.167 -5.75,52.583 -7.625,78.625c-2.333,32.458 -5.167,48.5 -9.083,50.958c-3.125,2 -62.917,3.667 -132.792,3.708Z" style="fill:#080808;fill-rule:nonzero;"/></g></svg>