<?xml version="1.0" encoding="UTF-8" standalone="no"?><!DOCTYPE svg PUBLIC "-//W3C//DTD SVG 1.1//EN" "http://www.w3.org/Graphics/SVG/1.1/DTD/svg11.dtd"><svg width="100%" height="100%" viewBox="0 0 1000 1000" version="1.1" xmlns="http://www.w3.org/2000/svg" xmlns:xlink="http://www.w3.org/1999/xlink" xml:space="preserve" xmlns:serif="http://www.serif.com/" style="fill-rule:evenodd;clip-rule:evenodd;stroke-linejoin:round;stroke-miterlimit:2;"><g><path d="M849.74,218.665l-165.26,0l18.857,-3.69l0.88,-0.17l20.511,-4.02c2.919,-0.57 2.919,-4.75 0,-5.32l-20.511,-4.02l-0.88,-0.17l-20.39,-3.99l-401,0c-5.98,0 -10.83,4.85 -10.83,10.84c0,5.122 3.562,9.411 8.34,10.54l-129.197,0c-18.03,0 -32.69,14.67 -32.69,32.69l0,518.67c0,18.02 14.66,32.69 32.69,32.69l699.48,0c18.02,0 32.69,-14.67 32.69,-32.69l0,-518.67c0,-18.02 -14.67,-32.69 -32.69,-32.69Z" style="fill-rule:nonzero;"/><path d="M281.947,197.285l0,21.68c-5.98,0 -10.83,-4.86 -10.83,-10.84c0,-5.99 4.85,-10.84 10.83,-10.84Z" style="fill:url(#_Linear1);"/><path d="M682.947,197.285l20.39,3.99l0,13.7l-20.39,3.99l-401,0l0,-21.68l401,0Z" style="fill:url(#_Linear2);"/><path d="M724.728,210.785l-20.511,4.02l0,-13.36l20.511,4.02c2.919,0.57 2.919,4.75 0,5.32Z" style="fill:url(#_Linear3);"/><path d="M704.217,201.445l0,13.36l-0.88,0.17l0,-13.7l0.88,0.17Z" style="fill:url(#_Linear4);"/><path d="M882.13,770.025c0,0.81 -0.03,1.62 -0.09,2.42c-0.02,0.23 -0.04,0.45 -0.06,0.68c-0.13,1.36 -0.34,2.7 -0.64,4.01c-0.05,0.25 -0.11,0.5 -0.18,0.75c-0.04,0.18 -0.09,0.37 -0.14,0.56c-0.62,2.32 -1.5,4.53 -2.6,6.61c-0.11,0.23 -0.23,0.45 -0.36,0.67c-0.25,0.46 -0.51,0.9 -0.79,1.34c-0.12,0.2 -0.25,0.41 -0.39,0.61c-0.13,0.21 -0.27,0.42 -0.42,0.63c-0.39,0.58 -0.81,1.15 -1.25,1.7c-0.19,0.25 -0.38,0.48 -0.58,0.71c-0.29,0.37 -0.61,0.72 -0.93,1.08c-0.19,0.21 -0.38,0.41 -0.58,0.61c-0.33,0.36 -0.69,0.71 -1.05,1.05l-0.04,0.04c-0.72,0.69 -1.47,1.34 -2.26,1.96l-0.05,0.04c-1.17,0.93 -2.41,1.77 -3.71,2.52c-0.43,0.26 -0.88,0.51 -1.33,0.74l-0.21,0.11c-0.38,0.2 -0.77,0.39 -1.16,0.56c-0.46,0.22 -0.93,0.43 -1.4,0.61c-0.48,0.2 -0.96,0.38 -1.44,0.55c-0.47,0.17 -0.95,0.33 -1.43,0.47l-0.08,0.02c-0.48,0.15 -0.97,0.28 -1.46,0.4c-0.5,0.13 -1.01,0.24 -1.52,0.33c-0.52,0.11 -1.04,0.2 -1.56,0.27c-0.46,0.07 -0.91,0.13 -1.37,0.17l-0.22,0.02c-0.75,0.07 -1.5,0.12 -2.26,0.14c-0.28,0.01 -0.55,0.01 -0.83,0.01l-699.48,0c-0.28,0 -0.55,0 -0.83,-0.01c-0.76,-0.02 -1.51,-0.07 -2.26,-0.14l-0.22,-0.02c-0.46,-0.04 -0.91,-0.1 -1.37,-0.17c-0.52,-0.07 -1.04,-0.16 -1.56,-0.27c-0.51,-0.09 -1.02,-0.2 -1.52,-0.33c-0.49,-0.12 -0.98,-0.25 -1.46,-0.4l-0.08,-0.02c-0.48,-0.14 -0.96,-0.3 -1.43,-0.47c-0.48,-0.17 -0.96,-0.35 -1.44,-0.55c-0.47,-0.18 -0.94,-0.39 -1.4,-0.61c-0.39,-0.17 -0.78,-0.36 -1.16,-0.56l-0.21,-0.11c-0.45,-0.23 -0.9,-0.48 -1.33,-0.74c-1.3,-0.75 -2.54,-1.59 -3.71,-2.52l-0.051,-0.04c-0.789,-0.62 -1.539,-1.27 -2.259,-1.96l-0.04,-0.04c-0.36,-0.34 -0.72,-0.69 -1.05,-1.05c-0.2,-0.2 -0.39,-0.4 -0.58,-0.61c-0.32,-0.36 -0.64,-0.71 -0.93,-1.08c-0.2,-0.23 -0.39,-0.46 -0.58,-0.71c-0.44,-0.55 -0.86,-1.12 -1.25,-1.7c-0.15,-0.21 -0.29,-0.42 -0.42,-0.63c-0.14,-0.2 -0.27,-0.41 -0.39,-0.61c-0.28,-0.44 -0.54,-0.88 -0.79,-1.34c-0.13,-0.22 -0.25,-0.44 -0.36,-0.67c-1.1,-2.08 -1.98,-4.29 -2.6,-6.61c-0.05,-0.19 -0.1,-0.38 -0.14,-0.56c-0.07,-0.25 -0.13,-0.5 -0.18,-0.75c-0.3,-1.31 -0.51,-2.65 -0.64,-4.01c-0.02,-0.23 -0.04,-0.45 -0.06,-0.68c-0.06,-0.8 -0.09,-1.61 -0.09,-2.42l0,-518.67c0,-0.81 0.03,-1.62 0.09,-2.42c0.02,-0.25 0.04,-0.51 0.07,-0.76c0.13,-1.34 0.34,-2.64 0.63,-3.92c0.05,-0.26 0.11,-0.51 0.18,-0.76c0.05,-0.22 0.11,-0.45 0.17,-0.66c0.62,-2.28 1.49,-4.46 2.57,-6.51c0.12,-0.23 0.24,-0.45 0.36,-0.67c0.5,-0.9 1.04,-1.77 1.62,-2.62c0.14,-0.19 0.28,-0.39 0.42,-0.59c0.26,-0.36 0.53,-0.72 0.81,-1.07c0.72,-0.92 1.49,-1.79 2.31,-2.63c0.18,-0.19 0.36,-0.37 0.55,-0.55c0.09,-0.1 0.19,-0.19 0.28,-0.27c0.09,-0.09 0.18,-0.18 0.27,-0.25c0.279,-0.28 0.57,-0.54 0.87,-0.79c0.27,-0.24 0.56,-0.48 0.85,-0.71c0.119,-0.1 0.24,-0.2 0.36,-0.29l0.22,-0.17c0.31,-0.24 0.62,-0.48 0.94,-0.71l0.08,-0.06c0.38,-0.27 0.78,-0.53 1.17,-0.79l0.12,-0.08c0.39,-0.25 0.78,-0.49 1.18,-0.71c0.43,-0.26 0.88,-0.5 1.33,-0.74l0.21,-0.11c0.38,-0.2 0.77,-0.39 1.16,-0.56c0.46,-0.22 0.93,-0.42 1.4,-0.61c0.47,-0.2 0.95,-0.38 1.44,-0.55c1.45,-0.52 2.95,-0.93 4.49,-1.22c0.52,-0.11 1.04,-0.2 1.56,-0.27c0.46,-0.07 0.91,-0.13 1.37,-0.17l0.22,-0.02c0.23,-0.03 0.47,-0.05 0.71,-0.05c0.29,-0.03 0.58,-0.05 0.87,-0.06c0.5,-0.03 1,-0.04 1.51,-0.04l699.48,0c0.51,0 1.01,0.01 1.51,0.04c0.29,0.01 0.58,0.03 0.87,0.06c0.24,0 0.48,0.02 0.71,0.05l0.22,0.02c0.46,0.04 0.91,0.1 1.37,0.17c0.52,0.07 1.04,0.16 1.56,0.27c1.54,0.29 3.04,0.7 4.49,1.22c0.49,0.17 0.97,0.35 1.44,0.55c0.47,0.19 0.94,0.39 1.4,0.61c0.39,0.17 0.78,0.36 1.16,0.56l0.21,0.11c0.45,0.24 0.9,0.48 1.33,0.74c0.4,0.22 0.79,0.46 1.18,0.71l0.12,0.08c0.39,0.26 0.79,0.52 1.17,0.79l0.08,0.06c0.32,0.23 0.63,0.47 0.94,0.71l0.22,0.17c0.12,0.09 0.24,0.19 0.36,0.29c0.29,0.23 0.58,0.47 0.85,0.71c0.3,0.25 0.59,0.51 0.87,0.79c0.09,0.07 0.18,0.16 0.27,0.25c0.09,0.08 0.19,0.17 0.28,0.27c0.19,0.18 0.37,0.36 0.55,0.55c0.82,0.84 1.59,1.71 2.31,2.63c0.28,0.35 0.55,0.71 0.81,1.07c0.14,0.2 0.28,0.4 0.42,0.59c0.58,0.85 1.12,1.72 1.62,2.62c0.12,0.22 0.24,0.44 0.36,0.67c1.08,2.05 1.95,4.23 2.57,6.51c0.06,0.21 0.12,0.44 0.17,0.66c0.07,0.25 0.13,0.5 0.18,0.76c0.29,1.28 0.5,2.58 0.63,3.92c0.03,0.25 0.05,0.51 0.07,0.76c0.06,0.8 0.09,1.61 0.09,2.42l0,518.67Zm-32.39,-551.36l-699.48,0c-18.03,0 -32.69,14.67 -32.69,32.69l0,518.67c0,18.02 14.66,32.69 32.69,32.69l699.48,0c18.02,0 32.69,-14.67 32.69,-32.69l0,-518.67c0,-18.02 -14.67,-32.69 -32.69,-32.69Z" style="fill:#dfdfdf;fill-rule:nonzero;"/><path d="M849.74,243.465l-699.48,0c-4.35,0 -7.89,3.539 -7.89,7.89l0,518.67c0,4.35 3.54,7.89 7.89,7.89l699.48,0c4.351,0 7.89,-3.54 7.89,-7.89l0,-518.67c0,-4.351 -3.539,-7.89 -7.89,-7.89Z" style="fill:url(#_Linear5);"/><path d="M857.63,770.025c0,4.35 -3.539,7.89 -7.89,7.89l-699.48,0c-4.35,0 -7.89,-3.54 -7.89,-7.89l0,-518.67c0,-4.351 3.54,-7.89 7.89,-7.89l699.48,0c4.351,0 7.89,3.539 7.89,7.89l0,518.67Zm-7.89,-527.06l-699.48,0c-4.626,0 -8.39,3.764 -8.39,8.39l0,518.67c0,4.626 3.764,8.39 8.39,8.39l699.48,0c4.626,0 8.39,-3.764 8.39,-8.39l0,-518.67c0,-4.626 -3.764,-8.39 -8.39,-8.39Z" style="fill:url(#_Linear6);"/><path d="M858.13,770.025c0,4.626 -3.764,8.39 -8.39,8.39l-699.48,0c-4.626,0 -8.39,-3.764 -8.39,-8.39l0,-518.67c0,-4.626 3.764,-8.39 8.39,-8.39l699.48,0c4.626,0 8.39,3.764 8.39,8.39l0,518.67Zm-8.39,-548.06l-699.48,0c-16.21,0 -29.39,13.18 -29.39,29.39l0,518.67c0,16.21 13.18,29.39 29.39,29.39l699.48,0c16.21,0 29.39,-13.18 29.39,-29.39l0,-518.67c0,-16.21 -13.18,-29.39 -29.39,-29.39Z" style="fill:#030303;fill-rule:nonzero;"/><path d="M148.75,802.375c-0.35,-0.02 -0.7,-0.04 -1.05,-0.07c-0.18,-0.01 -0.35,-0.02 -0.53,-0.04l-0.22,-0.02c-0.46,-0.05 -0.92,-0.11 -1.37,-0.17c-0.53,-0.08 -1.04,-0.17 -1.56,-0.27c-0.51,-0.1 -1.02,-0.21 -1.52,-0.33c-0.49,-0.13 -0.98,-0.26 -1.46,-0.4l-0.08,-0.02c-0.48,-0.15 -0.96,-0.31 -1.43,-0.47c-0.49,-0.17 -0.97,-0.35 -1.44,-0.55c-0.47,-0.19 -0.94,-0.39 -1.4,-0.61c-0.39,-0.18 -0.78,-0.37 -1.16,-0.56l-0.21,-0.11c-0.45,-0.24 -0.9,-0.48 -1.33,-0.74c-1.3,-0.76 -2.54,-1.6 -3.71,-2.52l-0.051,-0.04c-0.779,-0.62 -1.539,-1.28 -2.259,-1.96l-0.04,-0.04c-0.36,-0.34 -0.71,-0.69 -1.05,-1.05c-0.2,-0.2 -0.39,-0.4 -0.58,-0.61c-0.31,-0.35 -0.63,-0.71 -0.93,-1.08c-0.2,-0.23 -0.39,-0.46 -0.58,-0.71c-0.43,-0.55 -0.85,-1.12 -1.25,-1.7c-0.14,-0.21 -0.28,-0.42 -0.42,-0.63c-0.13,-0.2 -0.26,-0.41 -0.39,-0.61c-0.28,-0.44 -0.54,-0.88 -0.79,-1.34c-0.12,-0.22 -0.24,-0.45 -0.36,-0.67c-1.1,-2.08 -1.98,-4.29 -2.6,-6.61c-0.05,-0.18 -0.1,-0.37 -0.14,-0.56c-0.07,-0.25 -0.13,-0.5 -0.18,-0.75c-0.3,-1.31 -0.51,-2.65 -0.64,-4.01c-0.02,-0.23 -0.04,-0.45 -0.06,-0.68c-0.06,-0.8 -0.09,-1.61 -0.09,-2.42l0,-518.67c0,-0.81 0.03,-1.62 0.09,-2.42c0.02,-0.25 0.04,-0.51 0.07,-0.76c0.13,-1.34 0.34,-2.64 0.63,-3.92c0.05,-0.26 0.11,-0.51 0.18,-0.76c0.05,-0.22 0.11,-0.45 0.17,-0.66c0.62,-2.28 1.49,-4.46 2.57,-6.51c0.12,-0.23 0.24,-0.45 0.36,-0.67c0.5,-0.9 1.04,-1.77 1.62,-2.62c0.14,-0.19 0.28,-0.39 0.42,-0.59c0.26,-0.36 0.53,-0.72 0.81,-1.07c0.72,-0.92 1.49,-1.79 2.31,-2.63c0.18,-0.19 0.36,-0.37 0.55,-0.55c0.09,-0.1 0.19,-0.19 0.28,-0.27c0.09,-0.09 0.18,-0.18 0.27,-0.25c0.279,-0.28 0.57,-0.54 0.87,-0.79c0.27,-0.24 0.56,-0.48 0.85,-0.71c0.119,-0.1 0.24,-0.2 0.36,-0.29l0.22,-0.17c0.31,-0.24 0.62,-0.48 0.94,-0.71l0.08,-0.06c0.38,-0.27 0.78,-0.53 1.17,-0.79l0.12,-0.08c0.39,-0.24 0.78,-0.48 1.18,-0.71c0.43,-0.26 0.88,-0.5 1.33,-0.74l0.21,-0.11c0.38,-0.19 0.77,-0.38 1.16,-0.56c0.46,-0.22 0.93,-0.42 1.4,-0.61c0.47,-0.2 0.95,-0.38 1.44,-0.55c1.45,-0.51 2.95,-0.92 4.49,-1.22c0.52,-0.1 1.03,-0.19 1.56,-0.27c0.45,-0.06 0.91,-0.12 1.37,-0.17l0.22,-0.02c0.23,-0.03 0.47,-0.05 0.71,-0.05c-0.19,0.01 -0.38,0.03 -0.57,0.05c-0.48,0.05 -0.96,0.11 -1.43,0.18c-0.23,0.03 -0.46,0.07 -0.68,0.12c-0.29,0.04 -0.57,0.09 -0.85,0.15c-0.43,0.08 -0.85,0.18 -1.26,0.29c-0.45,0.11 -0.9,0.23 -1.34,0.37c-0.37,0.11 -0.73,0.23 -1.09,0.36c-0.77,0.26 -1.53,0.55 -2.26,0.89c-0.23,0.09 -0.46,0.2 -0.68,0.31c-0.35,0.16 -0.7,0.33 -1.04,0.51l-0.09,0.05c-0.39,0.21 -0.77,0.42 -1.15,0.64l-0.05,0.03c-0.27,0.16 -0.54,0.32 -0.8,0.49c-0.23,0.14 -0.46,0.29 -0.68,0.44l-0.15,0.11c-0.36,0.24 -0.72,0.5 -1.07,0.76c-0.34,0.25 -0.68,0.51 -1.01,0.79l-0.21,0.18c-0.33,0.25 -0.65,0.53 -0.961,0.83c-0.349,0.31 -0.689,0.64 -1.019,0.97c-0.29,0.28 -0.58,0.58 -0.86,0.89l-0.231,0.25c-0.269,0.31 -0.539,0.63 -0.809,0.95c-0.31,0.36 -0.6,0.73 -0.87,1.11c-0.23,0.3 -0.45,0.6 -0.65,0.91c-0.12,0.15 -0.22,0.31 -0.33,0.47c-0.13,0.19 -0.26,0.39 -0.38,0.6c-0.13,0.19 -0.25,0.38 -0.36,0.58c-0.23,0.39 -0.46,0.78 -0.67,1.18c-0.13,0.24 -0.26,0.49 -0.38,0.74c-0.29,0.58 -0.57,1.18 -0.82,1.79c-0.08,0.19 -0.16,0.39 -0.24,0.59c-0.12,0.3 -0.23,0.6 -0.34,0.91c-0.14,0.39 -0.27,0.79 -0.39,1.19c-0.13,0.4 -0.24,0.81 -0.35,1.22l-0.01,0.06c-0.12,0.45 -0.23,0.9 -0.32,1.35l-0.01,0.07c-0.07,0.34 -0.14,0.68 -0.18,1.02c-0.28,1.59 -0.42,3.22 -0.42,4.89l0,524.67c0,0.58 0.02,1.17 0.06,1.74c0.01,0.31 0.03,0.62 0.06,0.92c0.02,0.26 0.05,0.52 0.09,0.78c0.01,0.13 0.03,0.25 0.04,0.37c0.04,0.35 0.09,0.69 0.16,1.03l0.02,0.14c0.03,0.21 0.07,0.42 0.11,0.63c0.02,0.1 0.04,0.2 0.06,0.3l0.02,0.11c0.06,0.31 0.13,0.61 0.21,0.92c0.03,0.13 0.06,0.26 0.1,0.39c0.11,0.43 0.23,0.86 0.36,1.28c0.13,0.42 0.26,0.84 0.41,1.24l0.02,0.05c0.07,0.21 0.14,0.41 0.23,0.61l0.03,0.08c0.08,0.23 0.17,0.45 0.26,0.67l0.02,0.05c0.26,0.61 0.53,1.2 0.82,1.78c0.12,0.25 0.25,0.49 0.38,0.74c0.21,0.4 0.44,0.79 0.67,1.18c0.11,0.2 0.23,0.39 0.36,0.58c0.12,0.2 0.25,0.4 0.38,0.6c0.1,0.16 0.21,0.32 0.33,0.47c0.2,0.31 0.42,0.61 0.65,0.91c0.27,0.38 0.56,0.75 0.87,1.11c0.22,0.28 0.46,0.56 0.71,0.83l0.099,0.12c0.08,0.09 0.161,0.17 0.231,0.25l0.08,0.09c0.26,0.27 0.519,0.54 0.78,0.8c0.26,0.27 0.519,0.52 0.78,0.76l0.06,0.05c0.11,0.11 0.23,0.22 0.36,0.32c0.239,0.23 0.49,0.44 0.74,0.64c0.08,0.07 0.16,0.14 0.25,0.21c0.33,0.27 0.66,0.54 1.01,0.79c0.25,0.2 0.5,0.38 0.76,0.55l0.08,0.06c0.2,0.14 0.4,0.28 0.6,0.41c0.34,0.22 0.69,0.45 1.05,0.66l0.06,0.04c0.24,0.14 0.48,0.28 0.73,0.41c0.13,0.08 0.27,0.16 0.41,0.23c0.26,0.14 0.52,0.28 0.78,0.4c0.34,0.18 0.7,0.35 1.06,0.5c0.26,0.12 0.52,0.24 0.78,0.35c0.1,0.04 0.19,0.08 0.29,0.12c0.28,0.11 0.56,0.22 0.85,0.32c0.17,0.07 0.35,0.13 0.53,0.19l0.11,0.04c0.32,0.11 0.64,0.21 0.97,0.31c0.34,0.11 0.69,0.21 1.04,0.29l0.14,0.04c0.12,0.03 0.24,0.06 0.36,0.09c0.33,0.09 0.67,0.16 1.01,0.23l0.05,0.01c0.28,0.06 0.56,0.11 0.85,0.15c0.22,0.05 0.45,0.09 0.68,0.12c0.47,0.07 0.95,0.13 1.43,0.18c0.47,0.05 0.96,0.09 1.44,0.11Z" style="fill:url(#_Linear7);"/><path d="M150.26,802.415c-0.507,0 -1.01,-0.013 -1.51,-0.039c0.5,0.024 1.003,0.039 1.51,0.039Z" style="fill:#dfdfdf;fill-rule:nonzero;"/><path d="M882.13,251.355l0,518.67c0,0.81 -0.03,1.62 -0.09,2.42c-0.02,0.23 -0.04,0.45 -0.06,0.68c-0.13,1.36 -0.34,2.7 -0.64,4.01c-0.05,0.25 -0.11,0.5 -0.18,0.75c-0.04,0.19 -0.09,0.38 -0.14,0.56c-0.62,2.32 -1.5,4.53 -2.6,6.61c-0.12,0.22 -0.24,0.45 -0.36,0.67c-0.25,0.46 -0.51,0.9 -0.79,1.34c-0.13,0.2 -0.26,0.41 -0.39,0.61c-0.14,0.21 -0.28,0.42 -0.42,0.63c-0.4,0.58 -0.82,1.15 -1.25,1.7c-0.19,0.25 -0.38,0.48 -0.58,0.71c-0.3,0.37 -0.62,0.73 -0.93,1.08c-0.19,0.21 -0.38,0.41 -0.58,0.61c-0.34,0.36 -0.69,0.71 -1.05,1.05l-0.04,0.04c-0.72,0.68 -1.48,1.34 -2.26,1.96l-0.05,0.04c-1.17,0.92 -2.41,1.76 -3.71,2.52c-0.43,0.26 -0.88,0.5 -1.33,0.74l-0.21,0.11c-0.38,0.19 -0.77,0.38 -1.16,0.56c-0.46,0.22 -0.93,0.42 -1.4,0.61c-0.47,0.2 -0.95,0.38 -1.44,0.55c-0.47,0.16 -0.95,0.32 -1.43,0.47l-0.08,0.02c-0.48,0.14 -0.97,0.27 -1.46,0.4c-0.5,0.12 -1.01,0.23 -1.52,0.33c-0.52,0.1 -1.03,0.19 -1.56,0.27c-0.45,0.06 -0.91,0.12 -1.37,0.17l-0.22,0.02c-0.18,0.02 -0.35,0.03 -0.53,0.04c0.13,-0.01 0.26,-0.03 0.39,-0.04c0.48,-0.04 0.96,-0.1 1.43,-0.18c0.23,-0.03 0.46,-0.07 0.68,-0.12c0.29,-0.04 0.57,-0.09 0.85,-0.15c0.48,-0.1 0.95,-0.21 1.42,-0.33c0.4,-0.1 0.8,-0.21 1.18,-0.33c0.33,-0.1 0.65,-0.2 0.97,-0.31c0.61,-0.21 1.2,-0.43 1.78,-0.67c0.26,-0.11 0.52,-0.23 0.78,-0.35c0.36,-0.15 0.72,-0.32 1.06,-0.5c0.26,-0.13 0.52,-0.26 0.78,-0.4c0.14,-0.07 0.28,-0.15 0.41,-0.23c0.27,-0.14 0.53,-0.29 0.79,-0.45c0.36,-0.21 0.71,-0.44 1.05,-0.66c0.2,-0.13 0.4,-0.27 0.6,-0.41c0.29,-0.19 0.57,-0.4 0.84,-0.61c0.34,-0.25 0.68,-0.51 1.01,-0.79c0.09,-0.07 0.17,-0.14 0.25,-0.21c0.25,-0.2 0.5,-0.41 0.74,-0.64c0.13,-0.1 0.25,-0.21 0.36,-0.32c0.29,-0.26 0.57,-0.52 0.84,-0.81c0.29,-0.28 0.58,-0.58 0.86,-0.89c0.07,-0.08 0.15,-0.16 0.23,-0.25c0.27,-0.31 0.54,-0.63 0.81,-0.95c0.31,-0.36 0.6,-0.73 0.87,-1.11c0.23,-0.3 0.45,-0.6 0.65,-0.91c0.12,-0.15 0.23,-0.31 0.33,-0.47c0.13,-0.2 0.26,-0.4 0.38,-0.6c0.13,-0.19 0.25,-0.38 0.36,-0.58c0.23,-0.39 0.46,-0.78 0.67,-1.18c0.13,-0.25 0.26,-0.49 0.38,-0.74c0.29,-0.58 0.56,-1.17 0.82,-1.78c0.1,-0.24 0.19,-0.48 0.28,-0.72c0.1,-0.24 0.19,-0.49 0.28,-0.74c0.15,-0.4 0.28,-0.82 0.41,-1.24c0.13,-0.42 0.25,-0.85 0.36,-1.28c0.13,-0.46 0.23,-0.94 0.33,-1.42c0.08,-0.35 0.14,-0.71 0.19,-1.07c0.27,-1.57 0.41,-3.19 0.41,-4.84l0,-524.67c0,-1.67 -0.14,-3.3 -0.42,-4.89c-0.04,-0.34 -0.11,-0.68 -0.18,-1.02l-0.01,-0.07c-0.09,-0.45 -0.2,-0.9 -0.32,-1.35l-0.01,-0.06c-0.11,-0.41 -0.22,-0.82 -0.35,-1.22c-0.12,-0.4 -0.25,-0.8 -0.39,-1.19c-0.11,-0.31 -0.22,-0.61 -0.34,-0.91c-0.08,-0.2 -0.16,-0.4 -0.24,-0.59c-0.25,-0.61 -0.53,-1.21 -0.82,-1.79c-0.12,-0.25 -0.25,-0.5 -0.38,-0.74c-0.21,-0.4 -0.44,-0.79 -0.67,-1.18c-0.11,-0.2 -0.23,-0.39 -0.36,-0.58c-0.12,-0.21 -0.25,-0.41 -0.38,-0.6c-0.11,-0.16 -0.21,-0.32 -0.33,-0.47c-0.2,-0.31 -0.42,-0.61 -0.65,-0.91c-0.27,-0.38 -0.56,-0.75 -0.87,-1.11c-0.27,-0.32 -0.54,-0.64 -0.81,-0.95l-0.23,-0.25c-0.28,-0.31 -0.57,-0.61 -0.86,-0.89c-0.33,-0.33 -0.67,-0.66 -1.02,-0.97c-0.31,-0.3 -0.63,-0.58 -0.96,-0.83l-0.21,-0.18c-0.33,-0.28 -0.67,-0.54 -1.01,-0.79c-0.35,-0.26 -0.71,-0.52 -1.07,-0.76l-0.15,-0.11c-0.22,-0.15 -0.45,-0.3 -0.68,-0.44c-0.26,-0.17 -0.53,-0.33 -0.8,-0.49l-0.05,-0.03c-0.38,-0.22 -0.76,-0.43 -1.15,-0.64l-0.09,-0.05c-0.34,-0.18 -0.69,-0.35 -1.04,-0.51c-0.22,-0.11 -0.45,-0.22 -0.68,-0.31c-0.73,-0.34 -1.49,-0.63 -2.26,-0.89c-0.36,-0.13 -0.72,-0.25 -1.09,-0.36c-0.44,-0.14 -0.89,-0.26 -1.34,-0.37c-0.41,-0.11 -0.83,-0.21 -1.26,-0.29c-0.28,-0.06 -0.56,-0.11 -0.85,-0.15c-0.22,-0.05 -0.45,-0.09 -0.68,-0.12c-0.47,-0.07 -0.95,-0.13 -1.43,-0.18c-0.19,-0.02 -0.38,-0.04 -0.57,-0.05c0.24,0 0.48,0.02 0.71,0.05l0.22,0.02c0.46,0.05 0.92,0.11 1.37,0.17c0.53,0.08 1.04,0.17 1.56,0.27c1.54,0.3 3.04,0.71 4.49,1.22c0.49,0.17 0.97,0.35 1.44,0.55c0.47,0.19 0.94,0.39 1.4,0.61c0.39,0.18 0.78,0.37 1.16,0.56l0.21,0.11c0.45,0.24 0.9,0.48 1.33,0.74c0.4,0.23 0.79,0.47 1.18,0.71l0.12,0.08c0.39,0.26 0.79,0.52 1.17,0.79l0.08,0.06c0.32,0.23 0.63,0.47 0.94,0.71l0.22,0.17c0.12,0.09 0.24,0.19 0.36,0.29c0.29,0.23 0.58,0.47 0.85,0.71c0.3,0.25 0.59,0.51 0.87,0.79c0.09,0.07 0.18,0.16 0.27,0.25c0.09,0.08 0.19,0.17 0.28,0.27c0.19,0.18 0.37,0.36 0.55,0.55c0.82,0.84 1.59,1.71 2.31,2.63c0.28,0.35 0.55,0.71 0.81,1.07c0.14,0.2 0.28,0.4 0.42,0.59c0.58,0.85 1.12,1.72 1.62,2.62c0.12,0.22 0.24,0.44 0.36,0.67c1.08,2.05 1.95,4.23 2.57,6.51c0.06,0.21 0.12,0.44 0.17,0.66c0.07,0.25 0.13,0.5 0.18,0.76c0.29,1.28 0.5,2.58 0.63,3.92c0.03,0.25 0.05,0.51 0.07,0.76c0.06,0.8 0.09,1.61 0.09,2.42Z" style="fill:url(#_Linear8);"/><path d="M849.74,802.415c0.507,0 1.01,-0.015 1.51,-0.039c-0.5,0.026 -1.003,0.039 -1.51,0.039Z" style="fill:#dfdfdf;fill-rule:nonzero;"/><path d="M879.13,248.355l0,3c0,-16.21 -13.18,-29.39 -29.39,-29.39l-699.48,0c-16.21,0 -29.39,13.18 -29.39,29.39l0,-3c0,-1.67 0.14,-3.3 0.42,-4.89c0.04,-0.34 0.11,-0.68 0.18,-1.02l0.01,-0.07c0.09,-0.45 0.2,-0.9 0.32,-1.35l0.01,-0.06c0.11,-0.41 0.22,-0.82 0.35,-1.22c0.12,-0.4 0.25,-0.8 0.39,-1.19c0.11,-0.31 0.22,-0.61 0.34,-0.91c0.08,-0.2 0.16,-0.4 0.24,-0.59c0.25,-0.61 0.53,-1.21 0.82,-1.79c0.12,-0.25 0.25,-0.5 0.38,-0.74c0.21,-0.4 0.44,-0.79 0.67,-1.18c0.11,-0.2 0.23,-0.39 0.36,-0.58c0.12,-0.21 0.25,-0.41 0.38,-0.6c0.1,-0.16 0.21,-0.32 0.33,-0.47c0.2,-0.31 0.42,-0.61 0.65,-0.91c0.28,-0.38 0.57,-0.75 0.87,-1.11c0.27,-0.32 0.54,-0.64 0.809,-0.95l0.231,-0.25c0.28,-0.3 0.57,-0.6 0.86,-0.89c0.33,-0.33 0.67,-0.66 1.019,-0.97c0.311,-0.29 0.631,-0.56 0.961,-0.83l0.21,-0.18c0.33,-0.27 0.66,-0.53 1.01,-0.79c0.35,-0.26 0.71,-0.52 1.07,-0.76l0.15,-0.11c0.22,-0.15 0.45,-0.3 0.68,-0.44c0.26,-0.17 0.53,-0.33 0.8,-0.49l0.05,-0.03c0.38,-0.22 0.76,-0.43 1.15,-0.64l0.09,-0.05c0.34,-0.18 0.69,-0.35 1.04,-0.51c0.22,-0.11 0.45,-0.22 0.68,-0.31c0.73,-0.34 1.49,-0.63 2.26,-0.89c0.36,-0.13 0.72,-0.25 1.09,-0.36c0.44,-0.13 0.89,-0.26 1.34,-0.37c0.41,-0.11 0.83,-0.21 1.26,-0.29c0.28,-0.06 0.56,-0.11 0.85,-0.15c0.22,-0.05 0.45,-0.09 0.68,-0.12c0.47,-0.07 0.95,-0.13 1.43,-0.18c0.19,-0.02 0.38,-0.04 0.57,-0.05c0.29,-0.03 0.58,-0.05 0.87,-0.06c0.5,-0.03 1,-0.04 1.51,-0.04l699.48,0c0.51,0 1.01,0.01 1.51,0.04c0.29,0.01 0.58,0.03 0.87,0.06c0.19,0.01 0.38,0.03 0.57,0.05c0.48,0.05 0.96,0.11 1.43,0.18c0.23,0.03 0.46,0.07 0.68,0.12c0.29,0.04 0.57,0.09 0.85,0.15c0.43,0.08 0.85,0.18 1.26,0.29c0.45,0.11 0.9,0.24 1.34,0.37c0.37,0.11 0.73,0.23 1.09,0.36c0.77,0.26 1.53,0.55 2.26,0.89c0.23,0.09 0.46,0.2 0.68,0.31c0.35,0.16 0.7,0.33 1.04,0.51l0.09,0.05c0.39,0.21 0.77,0.42 1.15,0.64l0.05,0.03c0.27,0.16 0.54,0.32 0.8,0.49c0.23,0.14 0.46,0.29 0.68,0.44l0.15,0.11c0.36,0.24 0.72,0.5 1.07,0.76c0.35,0.26 0.68,0.52 1.01,0.79l0.21,0.18c0.33,0.27 0.65,0.54 0.96,0.83c0.35,0.31 0.69,0.64 1.02,0.97c0.29,0.29 0.58,0.59 0.86,0.89l0.23,0.25c0.27,0.31 0.54,0.63 0.81,0.95c0.3,0.36 0.59,0.73 0.87,1.11c0.23,0.3 0.45,0.6 0.65,0.91c0.12,0.15 0.23,0.31 0.33,0.47c0.13,0.19 0.26,0.39 0.38,0.6c0.13,0.19 0.25,0.38 0.36,0.58c0.23,0.39 0.46,0.78 0.67,1.18c0.13,0.24 0.26,0.49 0.38,0.74c0.29,0.58 0.57,1.18 0.82,1.79c0.08,0.19 0.16,0.39 0.24,0.59c0.12,0.3 0.23,0.6 0.34,0.91c0.14,0.39 0.27,0.79 0.39,1.19c0.13,0.4 0.24,0.81 0.35,1.22l0.01,0.06c0.12,0.45 0.23,0.9 0.32,1.35l0.01,0.07c0.07,0.34 0.14,0.68 0.18,1.02c0.28,1.59 0.42,3.22 0.42,4.89Z" style="fill:url(#_Linear9);"/><path d="M879.13,770.025l0,3c0,1.65 -0.14,3.27 -0.41,4.84c-0.05,0.36 -0.11,0.72 -0.19,1.07c-0.1,0.48 -0.2,0.96 -0.33,1.42c-0.11,0.43 -0.23,0.86 -0.36,1.28c-0.13,0.42 -0.26,0.84 -0.41,1.24c-0.09,0.25 -0.18,0.5 -0.28,0.74c-0.09,0.24 -0.18,0.48 -0.28,0.72c-0.26,0.61 -0.53,1.2 -0.82,1.78c-0.12,0.25 -0.25,0.49 -0.38,0.74c-0.21,0.4 -0.44,0.79 -0.67,1.18c-0.11,0.2 -0.23,0.39 -0.36,0.58c-0.12,0.2 -0.25,0.4 -0.38,0.6c-0.1,0.16 -0.21,0.32 -0.33,0.47c-0.2,0.31 -0.42,0.61 -0.65,0.91c-0.28,0.38 -0.57,0.75 -0.87,1.11c-0.27,0.32 -0.54,0.64 -0.81,0.95c-0.08,0.09 -0.16,0.17 -0.23,0.25c-0.28,0.3 -0.57,0.6 -0.86,0.89c-0.27,0.27 -0.55,0.54 -0.84,0.81c-0.11,0.11 -0.23,0.22 -0.36,0.32c-0.24,0.22 -0.49,0.43 -0.74,0.64c-0.08,0.07 -0.16,0.14 -0.25,0.21c-0.33,0.27 -0.66,0.54 -1.01,0.79c-0.27,0.21 -0.55,0.41 -0.84,0.61c-0.2,0.14 -0.4,0.28 -0.6,0.41c-0.34,0.22 -0.69,0.45 -1.05,0.66c-0.26,0.16 -0.52,0.31 -0.79,0.45c-0.13,0.08 -0.27,0.16 -0.41,0.23c-0.26,0.14 -0.52,0.27 -0.78,0.4c-0.34,0.18 -0.7,0.35 -1.06,0.5c-0.26,0.12 -0.52,0.24 -0.78,0.35c-0.58,0.24 -1.17,0.46 -1.78,0.67c-0.32,0.11 -0.64,0.21 -0.97,0.31c-0.38,0.12 -0.78,0.23 -1.18,0.33c-0.47,0.12 -0.94,0.23 -1.42,0.33c-0.28,0.06 -0.56,0.11 -0.85,0.15c-0.22,0.05 -0.45,0.09 -0.68,0.12c-0.47,0.07 -0.95,0.13 -1.43,0.18c-0.13,0.01 -0.26,0.03 -0.39,0.04c-0.35,0.03 -0.7,0.05 -1.05,0.07c-0.23,0.01 -0.45,0.02 -0.68,0.03c-0.28,0.01 -0.55,0.01 -0.83,0.01l-699.48,0c-0.28,0 -0.55,0 -0.83,-0.01c-0.23,-0.01 -0.45,-0.02 -0.68,-0.03c-0.35,-0.02 -0.7,-0.04 -1.05,-0.07c-0.13,-0.01 -0.26,-0.03 -0.39,-0.04c-0.48,-0.05 -0.96,-0.11 -1.43,-0.18c-0.23,-0.03 -0.46,-0.07 -0.68,-0.12c-0.29,-0.04 -0.57,-0.09 -0.85,-0.15l-0.05,-0.01c-0.34,-0.07 -0.68,-0.14 -1.01,-0.23c-0.12,-0.03 -0.24,-0.06 -0.36,-0.09l-0.14,-0.04c-0.35,-0.08 -0.7,-0.18 -1.04,-0.29c-0.33,-0.1 -0.65,-0.2 -0.97,-0.31l-0.11,-0.04c-0.18,-0.06 -0.36,-0.12 -0.53,-0.19c-0.29,-0.1 -0.57,-0.21 -0.85,-0.32c-0.1,-0.04 -0.19,-0.08 -0.29,-0.12c-0.26,-0.11 -0.52,-0.23 -0.78,-0.35c-0.36,-0.15 -0.72,-0.32 -1.06,-0.5c-0.26,-0.12 -0.52,-0.26 -0.78,-0.4c-0.14,-0.07 -0.28,-0.15 -0.41,-0.23c-0.25,-0.13 -0.49,-0.27 -0.73,-0.41l-0.06,-0.04c-0.36,-0.21 -0.71,-0.44 -1.05,-0.66c-0.2,-0.13 -0.4,-0.27 -0.6,-0.41l-0.08,-0.06c-0.26,-0.18 -0.52,-0.36 -0.76,-0.55c-0.35,-0.25 -0.68,-0.52 -1.01,-0.79c-0.09,-0.07 -0.17,-0.14 -0.25,-0.21c-0.25,-0.21 -0.501,-0.42 -0.74,-0.64c-0.13,-0.1 -0.25,-0.21 -0.36,-0.32l-0.06,-0.05c-0.27,-0.26 -0.53,-0.51 -0.78,-0.76c-0.261,-0.26 -0.52,-0.53 -0.78,-0.8l-0.08,-0.09c-0.07,-0.08 -0.151,-0.16 -0.231,-0.25l-0.099,-0.12c-0.24,-0.27 -0.47,-0.55 -0.71,-0.83c-0.3,-0.36 -0.59,-0.73 -0.87,-1.11c-0.23,-0.3 -0.45,-0.6 -0.65,-0.91c-0.12,-0.15 -0.23,-0.31 -0.33,-0.47c-0.13,-0.2 -0.26,-0.4 -0.38,-0.6c-0.13,-0.19 -0.25,-0.38 -0.36,-0.58c-0.23,-0.39 -0.46,-0.78 -0.67,-1.18c-0.13,-0.25 -0.26,-0.49 -0.38,-0.74c-0.29,-0.58 -0.56,-1.17 -0.82,-1.78l-0.02,-0.05c-0.09,-0.22 -0.18,-0.45 -0.26,-0.67l-0.03,-0.08c-0.09,-0.2 -0.16,-0.4 -0.23,-0.61l-0.02,-0.05c-0.15,-0.4 -0.28,-0.82 -0.41,-1.24c-0.13,-0.42 -0.25,-0.85 -0.36,-1.28c-0.04,-0.13 -0.07,-0.26 -0.1,-0.39c-0.08,-0.31 -0.15,-0.61 -0.21,-0.92l-0.02,-0.11c-0.02,-0.1 -0.04,-0.2 -0.06,-0.3c-0.04,-0.21 -0.08,-0.42 -0.11,-0.63l-0.02,-0.14c-0.06,-0.34 -0.11,-0.68 -0.16,-1.03c-0.01,-0.12 -0.03,-0.24 -0.04,-0.37c-0.04,-0.26 -0.06,-0.52 -0.09,-0.78c-0.03,-0.3 -0.05,-0.61 -0.06,-0.92c-0.04,-0.57 -0.06,-1.16 -0.06,-1.74l0,-3c0,16.21 13.18,29.39 29.39,29.39l699.48,0c16.21,0 29.39,-13.18 29.39,-29.39Z" style="fill:url(#_Linear10);"/></g><defs><linearGradient id="_Linear1" x1="0" y1="0" x2="1" y2="0" gradientUnits="userSpaceOnUse" gradientTransform="matrix(13.08,-13.08,13.08,13.08,273.167,214.664)"><stop offset="0" style="stop-color:#808080;stop-opacity:1"/><stop offset="0.46" style="stop-color:#e3e3e3;stop-opacity:1"/><stop offset="0.61" style="stop-color:#f9f9f9;stop-opacity:1"/><stop offset="0.83" style="stop-color:#fcfcfc;stop-opacity:1"/><stop offset="1" style="stop-color:#e4e4e4;stop-opacity:1"/></linearGradient><linearGradient id="_Linear2" x1="0" y1="0" x2="1" y2="0" gradientUnits="userSpaceOnUse" gradientTransform="matrix(0,-21.6801,21.6801,0,492.642,218.965)"><stop offset="0" style="stop-color:#808080;stop-opacity:1"/><stop offset="0.46" style="stop-color:#e3e3e3;stop-opacity:1"/><stop offset="0.61" style="stop-color:#f9f9f9;stop-opacity:1"/><stop offset="0.83" style="stop-color:#fcfcfc;stop-opacity:1"/><stop offset="1" style="stop-color:#e4e4e4;stop-opacity:1"/></linearGradient><linearGradient id="_Linear3" x1="0" y1="0" x2="1" y2="0" gradientUnits="userSpaceOnUse" gradientTransform="matrix(0,-13.3599,13.3599,0,715.567,214.805)"><stop offset="0" style="stop-color:#808080;stop-opacity:1"/><stop offset="0.46" style="stop-color:#e3e3e3;stop-opacity:1"/><stop offset="0.61" style="stop-color:#f9f9f9;stop-opacity:1"/><stop offset="0.83" style="stop-color:#fcfcfc;stop-opacity:1"/><stop offset="1" style="stop-color:#e4e4e4;stop-opacity:1"/></linearGradient><linearGradient id="_Linear4" x1="0" y1="0" x2="1" y2="0" gradientUnits="userSpaceOnUse" gradientTransform="matrix(0,-13.7001,13.7001,0,703.777,214.975)"><stop offset="0" style="stop-color:#808080;stop-opacity:1"/><stop offset="0.18" style="stop-color:#a9a9a9;stop-opacity:1"/><stop offset="0.38" style="stop-color:#b9b9b9;stop-opacity:1"/><stop offset="0.88" style="stop-color:#a4a4a4;stop-opacity:1"/><stop offset="1" style="stop-color:#8c8c8c;stop-opacity:1"/></linearGradient><linearGradient id="_Linear5" x1="0" y1="0" x2="1" y2="0" gradientUnits="userSpaceOnUse" gradientTransform="matrix(620.228,620.228,-620.228,620.228,189.886,200.576)"><stop offset="0" style="stop-color:#2a2a2a;stop-opacity:1"/><stop offset="0.48" style="stop-color:#090909;stop-opacity:1"/><stop offset="1" style="stop-color:#000;stop-opacity:1"/></linearGradient><linearGradient id="_Linear6" x1="0" y1="0" x2="1" y2="0" gradientUnits="userSpaceOnUse" gradientTransform="matrix(620.935,620.935,-620.935,620.935,189.533,200.223)"><stop offset="0" style="stop-color:#2a2a2a;stop-opacity:1"/><stop offset="0.48" style="stop-color:#090909;stop-opacity:1"/><stop offset="1" style="stop-color:#000;stop-opacity:1"/></linearGradient><linearGradient id="_Linear7" x1="0" y1="0" x2="1" y2="0" gradientUnits="userSpaceOnUse" gradientTransform="matrix(30.8799,0,0,30.8799,117.87,510.72)"><stop offset="0" style="stop-color:#f0f0f0;stop-opacity:1"/><stop offset="0.14" style="stop-color:#c6c6c6;stop-opacity:1"/><stop offset="0.33" style="stop-color:#acacac;stop-opacity:1"/><stop offset="0.54" style="stop-color:#a2a2a2;stop-opacity:1"/><stop offset="1" style="stop-color:#a1a1a1;stop-opacity:1"/></linearGradient><linearGradient id="_Linear8" x1="0" y1="0" x2="1" y2="0" gradientUnits="userSpaceOnUse" gradientTransform="matrix(30.01,0,0,30.01,852.12,510.685)"><stop offset="0" style="stop-color:#a1a1a1;stop-opacity:1"/><stop offset="0.46" style="stop-color:#a2a2a2;stop-opacity:1"/><stop offset="0.67" style="stop-color:#acacac;stop-opacity:1"/><stop offset="0.86" style="stop-color:#c6c6c6;stop-opacity:1"/><stop offset="1" style="stop-color:#f0f0f0;stop-opacity:1"/></linearGradient><linearGradient id="_Linear9" x1="0" y1="0" x2="1" y2="0" gradientUnits="userSpaceOnUse" gradientTransform="matrix(758.26,0,0,758.26,120.87,235.16)"><stop offset="0" style="stop-color:#c8c8c8;stop-opacity:1"/><stop offset="0.47" style="stop-color:#f0f0f0;stop-opacity:1"/><stop offset="0.72" style="stop-color:#e7e7e7;stop-opacity:1"/><stop offset="1" style="stop-color:#c8c8c8;stop-opacity:1"/></linearGradient><linearGradient id="_Linear10" x1="0" y1="0" x2="1" y2="0" gradientUnits="userSpaceOnUse" gradientTransform="matrix(758.26,0,0,758.26,120.87,786.22)"><stop offset="0" style="stop-color:#c8c8c8;stop-opacity:1"/><stop offset="0.47" style="stop-color:#f0f0f0;stop-opacity:1"/><stop offset="0.72" style="stop-color:#e7e7e7;stop-opacity:1"/><stop offset="1" style="stop-color:#c8c8c8;stop-opacity:1"/></linearGradient></defs></svg>