<?xml version="1.0" encoding="UTF-8" standalone="no"?><!DOCTYPE svg PUBLIC "-//W3C//DTD SVG 1.1//EN" "http://www.w3.org/Graphics/SVG/1.1/DTD/svg11.dtd"><svg width="100%" height="100%" viewBox="0 0 1224 792" version="1.1" xmlns="http://www.w3.org/2000/svg" xmlns:xlink="http://www.w3.org/1999/xlink" xml:space="preserve" xmlns:serif="http://www.serif.com/" style="fill-rule:evenodd;clip-rule:evenodd;stroke-linejoin:round;stroke-miterlimit:2;"><path d="M1224,23.477l0,46.955c0,12.958 -10.52,23.477 -23.477,23.477l-1177.045,0c-12.958,0 -23.477,-10.52 -23.477,-23.477l0,-46.955c0,-12.958 10.52,-23.477 23.477,-23.477l1177.045,0c12.958,0 23.477,10.52 23.477,23.477Z" style="fill:#acacac;"/><rect x="-0" y="-0" width="1224" height="57.926" style="fill:#acacac;"/><path d="M599.713,234.335l0,147.447c0,40.689 -33.034,73.723 -73.723,73.723l-344.043,0c-40.689,0 -73.723,-33.034 -73.723,-73.723l0,-147.447c0,-40.689 33.034,-73.723 73.723,-73.723l344.043,0c40.689,0 73.723,33.034 73.723,73.723Z" style="fill:#acacac;"/><path d="M1103.489,206.25l0,14.043c0,3.875 -3.146,7.021 -7.021,7.021l-390.558,0c-3.875,0 -7.021,-3.146 -7.021,-7.021l0,-14.043c0,-3.875 3.146,-7.021 7.021,-7.021l390.558,0c3.875,0 7.021,3.146 7.021,7.021Z" style="fill:#acacac;"/><path d="M1103.489,245.745l0,14.043c0,3.875 -3.146,7.021 -7.021,7.021l-390.558,0c-3.875,0 -7.021,-3.146 -7.021,-7.021l0,-14.043c0,-3.875 3.146,-7.021 7.021,-7.021l390.558,0c3.875,0 7.021,3.146 7.021,7.021Z" style="fill:#acacac;"/><path d="M1103.489,286.995l0,14.043c0,3.875 -3.146,7.021 -7.021,7.021l-390.558,0c-3.875,0 -7.021,-3.146 -7.021,-7.021l0,-14.043c0,-3.875 3.146,-7.021 7.021,-7.021l390.558,0c3.875,0 7.021,3.146 7.021,7.021Z" style="fill:#acacac;"/><path d="M1103.489,327.367l0,14.043c0,3.875 -3.146,7.021 -7.021,7.021l-390.558,0c-3.875,0 -7.021,-3.146 -7.021,-7.021l0,-14.043c0,-3.875 3.146,-7.021 7.021,-7.021l390.558,0c3.875,0 7.021,3.146 7.021,7.021Z" style="fill:#acacac;"/><path d="M332.027,580.572l0,94.787c0,25.915 -21.04,46.955 -46.955,46.955l-93.91,0c-25.915,0 -46.955,-21.04 -46.955,-46.955l0,-94.787c0,-25.915 21.04,-46.955 46.955,-46.955l93.91,0c25.915,0 46.955,21.04 46.955,46.955Z" style="fill:#acacac;"/><path d="M612,591.981l0,86.888c0,23.977 -19.467,43.444 -43.444,43.444l-90.399,0c-23.977,0 -43.444,-19.467 -43.444,-43.444l0,-86.888c0,-23.977 19.467,-43.444 43.444,-43.444l90.399,0c23.977,0 43.444,19.467 43.444,43.444Z" style="fill:#acacac;"/><path d="M1142.106,602.513l0,79.867c0,22.04 -17.894,39.934 -39.934,39.934l-277.34,0c-22.04,0 -39.934,-17.894 -39.934,-39.934l0,-79.867c0,-22.04 17.894,-39.934 39.934,-39.934l277.34,0c22.04,0 39.934,17.894 39.934,39.934Z" style="fill:#acacac;"/><path d="M89.354,28.842l0,24.684c0,6.812 -5.53,12.342 -12.342,12.342l-37.849,0c-6.812,0 -12.342,-5.53 -12.342,-12.342l0,-24.684c0,-6.812 5.53,-12.342 12.342,-12.342l37.849,0c6.812,0 12.342,5.53 12.342,12.342Z" style="fill:#474747;"/><path d="M332.027,26.856l0,20.713c0,5.716 -4.641,10.356 -10.356,10.356l-182.465,0c-5.716,0 -10.356,-4.641 -10.356,-10.356l0,-20.713c0,-5.716 4.641,-10.356 10.356,-10.356l182.465,0c5.716,0 10.356,4.641 10.356,10.356Z" style="fill:#474747;"/><path d="M1189.719,28.842l0,24.684c0,6.812 -5.53,12.342 -12.342,12.342l-579.804,0c-6.812,0 -12.342,-5.53 -12.342,-12.342l0,-24.684c0,-6.812 5.53,-12.342 12.342,-12.342l579.804,0c6.812,0 12.342,5.53 12.342,12.342Z" style="fill:#474747;"/></svg>